<svg xmlns="http://www.w3.org/2000/svg" viewBox="0 0 512 512">
  <path fill="currentColor" d="M256 0C114.63 0 0 114.63 0 256c0 113.3 73.5 209.2 175.1 242.7 12.8 2.4 17.5-5.5 17.5-12.2 0-6-0.2-21.8-0.3-42.8-71.3 15.5-86.3-34.4-86.3-34.4-11.6-29.5-28.4-37.4-28.4-37.4-23.2-15.9 1.8-15.6 1.8-15.6 25.6 1.8 39.1 26.3 39.1 26.3 22.7 38.9 59.6 27.6 74.2 21 2.3-16.5 8.8-27.6 16.1-34 -56.3-6.4-115.6-28.2-115.6-125.3 0-27.7 9.9-50.5 26.2-68.4-2.7-6.5-11.4-32.4 2.5-67.6 0 0 21.5-6.9 70.4 26.2 20.4-5.7 42.2-8.6 63.8-8.7 21.5 0.1 43.4 3.1 63.8 8.7 48.8-33.1 70.2-26.2 70.2-26.2 14 35.2 5.3 61.1 2.6 67.6 16.4 17.9 26.2 40.7 26.2 68.4 0 97.2-59.5 118.8-115.9 125.2 9.1 7.8 17.2 23.3 17.2 47 0 34 0.3 61.4 0.3 69.7 0 6.7 4.6 14.7 17.6 12.2C438.5 465.2 512 369.3 512 256 512 114.63 397.37 0 256 0z"></path>
</svg>
